<svg xmlns="http://www.w3.org/2000/svg" xmlns:xlink="http://www.w3.org/1999/xlink" width="500" zoomAndPan="magnify" viewBox="0 0 375 374.999991" height="500" preserveAspectRatio="xMidYMid meet" version="1.0"><defs><g/><clipPath id="ebfde03c24"><path d="M 50 184 L 56.226562 184 L 56.226562 191 L 50 191 Z M 50 184 " clip-rule="nonzero"/></clipPath><clipPath id="07d9713f0e"><path d="M 11.226562 158.722656 L 56 158.722656 L 56 229 L 11.226562 229 Z M 11.226562 158.722656 " clip-rule="nonzero"/></clipPath></defs><path fill="#ffffff" d="M 30.191406 187.289062 C 30.191406 188.953125 31.542969 190.304688 33.207031 190.304688 C 34.875 190.304688 36.222656 188.953125 36.222656 187.289062 C 36.222656 185.621094 34.875 184.273438 33.207031 184.273438 C 31.542969 184.273438 30.191406 185.621094 30.191406 187.289062 " fill-opacity="1" fill-rule="nonzero"/><path fill="#ffffff" d="M 40.160156 187.289062 C 40.160156 188.953125 41.511719 190.304688 43.179688 190.304688 C 44.84375 190.304688 46.195312 188.953125 46.195312 187.289062 C 46.195312 185.621094 44.84375 184.273438 43.179688 184.273438 C 41.511719 184.273438 40.160156 185.621094 40.160156 187.289062 " fill-opacity="1" fill-rule="nonzero"/><g clip-path="url(#ebfde03c24)"><path fill="#ffffff" d="M 53.148438 184.273438 C 51.484375 184.273438 50.132812 185.621094 50.132812 187.289062 C 50.132812 188.953125 51.484375 190.304688 53.148438 190.304688 C 54.816406 190.304688 56.167969 188.953125 56.167969 187.289062 C 56.167969 185.621094 54.816406 184.273438 53.148438 184.273438 " fill-opacity="1" fill-rule="nonzero"/></g><g clip-path="url(#07d9713f0e)"><path fill="#ffffff" d="M 52.988281 203.453125 C 50.558594 204.847656 47.808594 205.742188 44.871094 205.992188 C 33.007812 206.992188 22.894531 197.15625 23.574219 185.273438 C 24.164062 174.949219 32.722656 166.761719 43.191406 166.761719 C 46.761719 166.761719 50.109375 167.710938 52.992188 169.375 C 54.28125 170.117188 55.890625 169.183594 55.890625 167.695312 L 55.890625 160.695312 C 55.890625 159.625 55.023438 158.761719 53.957031 158.761719 L 13.160156 158.761719 C 12.09375 158.761719 11.226562 159.625 11.226562 160.695312 L 11.226562 226.957031 C 11.226562 228.550781 13.046875 229.453125 14.316406 228.488281 L 32.816406 214.433594 C 33.148438 214.175781 33.558594 214.039062 33.976562 214.039062 L 53.957031 214.039062 C 55.023438 214.039062 55.890625 213.171875 55.890625 212.101562 L 55.890625 205.125 C 55.890625 203.636719 54.277344 202.707031 52.988281 203.453125 " fill-opacity="1" fill-rule="nonzero"/></g><g fill="#ffffff" fill-opacity="1"><g transform="translate(59.817598, 214.283995)"><g><path d="M 39.984375 -55.53125 L 55.53125 -55.53125 C 56.113281 -55.53125 56.613281 -55.316406 57.03125 -54.890625 C 57.457031 -54.472656 57.671875 -53.972656 57.671875 -53.390625 L 57.671875 -2.140625 C 57.671875 -1.554688 57.457031 -1.050781 57.03125 -0.625 C 56.613281 -0.207031 56.113281 0 55.53125 0 L 39.984375 0 C 39.398438 0 38.894531 -0.207031 38.46875 -0.625 C 38.050781 -1.050781 37.84375 -1.554688 37.84375 -2.140625 L 37.84375 -19.28125 L 24.984375 -19.28125 L 24.984375 -2.140625 C 24.984375 -1.554688 24.769531 -1.050781 24.34375 -0.625 C 23.925781 -0.207031 23.425781 0 22.84375 0 L 7.296875 0 C 6.710938 0 6.207031 -0.195312 5.78125 -0.59375 C 5.363281 -0.988281 5.15625 -1.503906 5.15625 -2.140625 L 5.15625 -53.390625 C 5.15625 -53.972656 5.363281 -54.472656 5.78125 -54.890625 C 6.207031 -55.316406 6.710938 -55.53125 7.296875 -55.53125 L 22.84375 -55.53125 C 23.425781 -55.53125 23.925781 -55.316406 24.34375 -54.890625 C 24.769531 -54.472656 24.984375 -53.972656 24.984375 -53.390625 L 24.984375 -36.734375 L 37.84375 -36.734375 L 37.84375 -53.390625 C 37.84375 -53.972656 38.050781 -54.472656 38.46875 -54.890625 C 38.894531 -55.316406 39.398438 -55.53125 39.984375 -55.53125 Z M 39.984375 -55.53125 "/></g></g></g><g fill="#ffffff" fill-opacity="1"><g transform="translate(122.645146, 214.283995)"><g><path d="M 22.53125 -55.53125 L 39.75 -55.53125 C 41.644531 -55.53125 42.832031 -54.65625 43.3125 -52.90625 L 61 -2.296875 C 61.050781 -2.140625 61.078125 -1.890625 61.078125 -1.546875 C 61.078125 -1.203125 60.90625 -0.859375 60.5625 -0.515625 C 60.21875 -0.171875 59.8125 0 59.34375 0 L 44.65625 0 C 43.070312 0 42.039062 -0.660156 41.5625 -1.984375 L 39.65625 -7.21875 L 22.609375 -7.21875 L 20.703125 -1.984375 C 20.222656 -0.660156 19.191406 0 17.609375 0 L 2.9375 0 C 2.457031 0 2.046875 -0.171875 1.703125 -0.515625 C 1.359375 -0.859375 1.1875 -1.203125 1.1875 -1.546875 C 1.1875 -1.890625 1.210938 -2.140625 1.265625 -2.296875 L 18.953125 -52.90625 C 19.429688 -54.65625 20.625 -55.53125 22.53125 -55.53125 Z M 26.65625 -22.6875 L 35.625 -22.6875 L 31.09375 -37.4375 Z M 26.65625 -22.6875 "/></g></g></g><g fill="#ffffff" fill-opacity="1"><g transform="translate(184.917405, 214.283995)"><g><path d="M 7.296875 -55.53125 L 30.9375 -55.53125 C 38.550781 -55.53125 44.5 -53.890625 48.78125 -50.609375 C 53.070312 -47.328125 55.21875 -42.488281 55.21875 -36.09375 C 55.21875 -29.695312 53.085938 -24.960938 48.828125 -21.890625 C 44.566406 -18.828125 38.601562 -17.296875 30.9375 -17.296875 L 25.78125 -17.296875 L 25.78125 -2.140625 C 25.78125 -1.554688 25.566406 -1.050781 25.140625 -0.625 C 24.722656 -0.207031 24.222656 0 23.640625 0 L 7.296875 0 C 6.710938 0 6.207031 -0.207031 5.78125 -0.625 C 5.363281 -1.050781 5.15625 -1.554688 5.15625 -2.140625 L 5.15625 -53.390625 C 5.15625 -53.972656 5.363281 -54.472656 5.78125 -54.890625 C 6.207031 -55.316406 6.710938 -55.53125 7.296875 -55.53125 Z M 25.390625 -40.78125 L 25.390625 -31.96875 L 30.9375 -31.96875 C 31.882812 -31.96875 32.726562 -32.320312 33.46875 -33.03125 C 34.21875 -33.75 34.59375 -34.769531 34.59375 -36.09375 C 34.59375 -37.414062 34.300781 -38.523438 33.71875 -39.421875 C 33.132812 -40.328125 32.207031 -40.78125 30.9375 -40.78125 Z M 25.390625 -40.78125 "/></g></g></g><g fill="#ffffff" fill-opacity="1"><g transform="translate(242.509333, 214.283995)"><g><path d="M 7.296875 -55.53125 L 30.9375 -55.53125 C 38.550781 -55.53125 44.5 -53.890625 48.78125 -50.609375 C 53.070312 -47.328125 55.21875 -42.488281 55.21875 -36.09375 C 55.21875 -29.695312 53.085938 -24.960938 48.828125 -21.890625 C 44.566406 -18.828125 38.601562 -17.296875 30.9375 -17.296875 L 25.78125 -17.296875 L 25.78125 -2.140625 C 25.78125 -1.554688 25.566406 -1.050781 25.140625 -0.625 C 24.722656 -0.207031 24.222656 0 23.640625 0 L 7.296875 0 C 6.710938 0 6.207031 -0.207031 5.78125 -0.625 C 5.363281 -1.050781 5.15625 -1.554688 5.15625 -2.140625 L 5.15625 -53.390625 C 5.15625 -53.972656 5.363281 -54.472656 5.78125 -54.890625 C 6.207031 -55.316406 6.710938 -55.53125 7.296875 -55.53125 Z M 25.390625 -40.78125 L 25.390625 -31.96875 L 30.9375 -31.96875 C 31.882812 -31.96875 32.726562 -32.320312 33.46875 -33.03125 C 34.21875 -33.75 34.59375 -34.769531 34.59375 -36.09375 C 34.59375 -37.414062 34.300781 -38.523438 33.71875 -39.421875 C 33.132812 -40.328125 32.207031 -40.78125 30.9375 -40.78125 Z M 25.390625 -40.78125 "/></g></g></g><g fill="#ffffff" fill-opacity="1"><g transform="translate(300.10124, 214.283995)"><g><path d="M 36.484375 0 L 20.9375 0 C 20.351562 0 19.847656 -0.207031 19.421875 -0.625 C 19.003906 -1.050781 18.796875 -1.554688 18.796875 -2.140625 L 18.796875 -17.765625 L 0.953125 -53.078125 C 0.847656 -53.285156 0.796875 -53.570312 0.796875 -53.9375 C 0.796875 -54.3125 0.96875 -54.671875 1.3125 -55.015625 C 1.65625 -55.359375 2.0625 -55.53125 2.53125 -55.53125 L 17.453125 -55.53125 C 19.035156 -55.53125 20.144531 -54.867188 20.78125 -53.546875 L 28.71875 -37.59375 L 36.65625 -53.546875 C 37.28125 -54.867188 38.390625 -55.53125 39.984375 -55.53125 L 54.890625 -55.53125 C 55.367188 -55.53125 55.78125 -55.359375 56.125 -55.015625 C 56.46875 -54.671875 56.640625 -54.3125 56.640625 -53.9375 C 56.640625 -53.570312 56.585938 -53.285156 56.484375 -53.078125 L 38.625 -17.765625 L 38.625 -2.140625 C 38.625 -1.554688 38.410156 -1.050781 37.984375 -0.625 C 37.566406 -0.207031 37.066406 0 36.484375 0 Z M 36.484375 0 "/></g></g></g></svg>