<svg xmlns="http://www.w3.org/2000/svg" xmlns:xlink="http://www.w3.org/1999/xlink" width="500" zoomAndPan="magnify" viewBox="0 0 375 131.249995" height="175" preserveAspectRatio="xMidYMid meet" version="1.0"><defs><g/><clipPath id="e0bd0cee37"><path d="M 52 64 L 58.859375 64 L 58.859375 71 L 52 71 Z M 52 64 " clip-rule="nonzero"/></clipPath><clipPath id="0ea0b9a995"><path d="M 13.371094 39 L 58.859375 39 L 58.859375 110 L 13.371094 110 Z M 13.371094 39 " clip-rule="nonzero"/></clipPath></defs><path fill="#ffffff" d="M 32.480469 67.785156 C 32.480469 69.464844 33.84375 70.824219 35.519531 70.824219 C 37.199219 70.824219 38.5625 69.464844 38.5625 67.785156 C 38.5625 66.105469 37.199219 64.746094 35.519531 64.746094 C 33.84375 64.746094 32.480469 66.105469 32.480469 67.785156 " fill-opacity="1" fill-rule="nonzero"/><path fill="#ffffff" d="M 42.53125 67.785156 C 42.53125 69.464844 43.890625 70.824219 45.570312 70.824219 C 47.25 70.824219 48.609375 69.464844 48.609375 67.785156 C 48.609375 66.105469 47.25 64.746094 45.570312 64.746094 C 43.890625 64.746094 42.53125 66.105469 42.53125 67.785156 " fill-opacity="1" fill-rule="nonzero"/><g clip-path="url(#e0bd0cee37)"><path fill="#ffffff" d="M 55.621094 64.746094 C 53.941406 64.746094 52.578125 66.105469 52.578125 67.785156 C 52.578125 69.464844 53.941406 70.824219 55.621094 70.824219 C 57.296875 70.824219 58.660156 69.464844 58.660156 67.785156 C 58.660156 66.105469 57.296875 64.746094 55.621094 64.746094 " fill-opacity="1" fill-rule="nonzero"/></g><g clip-path="url(#0ea0b9a995)"><path fill="#ffffff" d="M 55.453125 84.074219 C 53.007812 85.480469 50.234375 86.382812 47.273438 86.632812 C 35.316406 87.644531 25.128906 77.730469 25.8125 65.75 C 26.40625 55.347656 35.03125 47.097656 45.582031 47.097656 C 49.179688 47.097656 52.554688 48.054688 55.460938 49.730469 C 56.757812 50.480469 58.382812 49.539062 58.382812 48.039062 L 58.382812 40.984375 C 58.382812 39.90625 57.507812 39.03125 56.429688 39.03125 L 15.320312 39.03125 C 14.242188 39.03125 13.367188 39.90625 13.367188 40.984375 L 13.367188 107.761719 C 13.367188 109.367188 15.203125 110.277344 16.480469 109.308594 L 35.125 95.140625 C 35.460938 94.882812 35.875 94.742188 36.296875 94.742188 L 56.429688 94.742188 C 57.507812 94.742188 58.382812 93.871094 58.382812 92.792969 L 58.382812 85.761719 C 58.382812 84.257812 56.757812 83.324219 55.453125 84.074219 " fill-opacity="1" fill-rule="nonzero"/></g><g fill="#ffffff" fill-opacity="1"><g transform="translate(62.346307, 94.992697)"><g><path d="M 40.296875 -55.984375 L 55.984375 -55.984375 C 56.566406 -55.984375 57.070312 -55.769531 57.5 -55.34375 C 57.925781 -54.914062 58.140625 -54.40625 58.140625 -53.8125 L 58.140625 -2.15625 C 58.140625 -1.570312 57.925781 -1.066406 57.5 -0.640625 C 57.070312 -0.210938 56.566406 0 55.984375 0 L 40.296875 0 C 39.710938 0 39.207031 -0.210938 38.78125 -0.640625 C 38.351562 -1.066406 38.140625 -1.570312 38.140625 -2.15625 L 38.140625 -19.4375 L 25.1875 -19.4375 L 25.1875 -2.15625 C 25.1875 -1.570312 24.972656 -1.066406 24.546875 -0.640625 C 24.117188 -0.210938 23.613281 0 23.03125 0 L 7.359375 0 C 6.773438 0 6.269531 -0.195312 5.84375 -0.59375 C 5.414062 -1 5.203125 -1.519531 5.203125 -2.15625 L 5.203125 -53.8125 C 5.203125 -54.40625 5.414062 -54.914062 5.84375 -55.34375 C 6.269531 -55.769531 6.773438 -55.984375 7.359375 -55.984375 L 23.03125 -55.984375 C 23.613281 -55.984375 24.117188 -55.769531 24.546875 -55.34375 C 24.972656 -54.914062 25.1875 -54.40625 25.1875 -53.8125 L 25.1875 -37.03125 L 38.140625 -37.03125 L 38.140625 -53.8125 C 38.140625 -54.40625 38.351562 -54.914062 38.78125 -55.34375 C 39.207031 -55.769531 39.710938 -55.984375 40.296875 -55.984375 Z M 40.296875 -55.984375 "/></g></g></g><g fill="#ffffff" fill-opacity="1"><g transform="translate(125.67388, 94.992697)"><g><path d="M 22.71875 -55.984375 L 40.0625 -55.984375 C 41.976562 -55.984375 43.175781 -55.101562 43.65625 -53.34375 L 61.5 -2.3125 C 61.550781 -2.15625 61.578125 -1.90625 61.578125 -1.5625 C 61.578125 -1.21875 61.398438 -0.867188 61.046875 -0.515625 C 60.703125 -0.171875 60.289062 0 59.8125 0 L 45.015625 0 C 43.421875 0 42.382812 -0.664062 41.90625 -2 L 39.984375 -7.28125 L 22.796875 -7.28125 L 20.875 -2 C 20.394531 -0.664062 19.351562 0 17.75 0 L 2.953125 0 C 2.472656 0 2.0625 -0.171875 1.71875 -0.515625 C 1.375 -0.867188 1.203125 -1.21875 1.203125 -1.5625 C 1.203125 -1.90625 1.226562 -2.15625 1.28125 -2.3125 L 19.109375 -53.34375 C 19.585938 -55.101562 20.789062 -55.984375 22.71875 -55.984375 Z M 26.875 -22.875 L 35.90625 -22.875 L 31.34375 -37.75 Z M 26.875 -22.875 "/></g></g></g><g fill="#ffffff" fill-opacity="1"><g transform="translate(188.441743, 94.992697)"><g><path d="M 7.359375 -55.984375 L 31.1875 -55.984375 C 38.863281 -55.984375 44.859375 -54.328125 49.171875 -51.015625 C 53.492188 -47.710938 55.65625 -42.832031 55.65625 -36.375 C 55.65625 -29.925781 53.507812 -25.15625 49.21875 -22.0625 C 44.925781 -18.976562 38.914062 -17.4375 31.1875 -17.4375 L 25.984375 -17.4375 L 25.984375 -2.15625 C 25.984375 -1.570312 25.769531 -1.066406 25.34375 -0.640625 C 24.914062 -0.210938 24.410156 0 23.828125 0 L 7.359375 0 C 6.773438 0 6.269531 -0.210938 5.84375 -0.640625 C 5.414062 -1.066406 5.203125 -1.570312 5.203125 -2.15625 L 5.203125 -53.8125 C 5.203125 -54.40625 5.414062 -54.914062 5.84375 -55.34375 C 6.269531 -55.769531 6.773438 -55.984375 7.359375 -55.984375 Z M 25.59375 -41.109375 L 25.59375 -32.234375 L 31.1875 -32.234375 C 32.144531 -32.234375 32.992188 -32.59375 33.734375 -33.3125 C 34.484375 -34.03125 34.859375 -35.054688 34.859375 -36.390625 C 34.859375 -37.722656 34.566406 -38.84375 33.984375 -39.75 C 33.398438 -40.65625 32.46875 -41.109375 31.1875 -41.109375 Z M 25.59375 -41.109375 "/></g></g></g><g fill="#ffffff" fill-opacity="1"><g transform="translate(246.492026, 94.992697)"><g><path d="M 7.359375 -55.984375 L 31.1875 -55.984375 C 38.863281 -55.984375 44.859375 -54.328125 49.171875 -51.015625 C 53.492188 -47.710938 55.65625 -42.832031 55.65625 -36.375 C 55.65625 -29.925781 53.507812 -25.15625 49.21875 -22.0625 C 44.925781 -18.976562 38.914062 -17.4375 31.1875 -17.4375 L 25.984375 -17.4375 L 25.984375 -2.15625 C 25.984375 -1.570312 25.769531 -1.066406 25.34375 -0.640625 C 24.914062 -0.210938 24.410156 0 23.828125 0 L 7.359375 0 C 6.773438 0 6.269531 -0.210938 5.84375 -0.640625 C 5.414062 -1.066406 5.203125 -1.570312 5.203125 -2.15625 L 5.203125 -53.8125 C 5.203125 -54.40625 5.414062 -54.914062 5.84375 -55.34375 C 6.269531 -55.769531 6.773438 -55.984375 7.359375 -55.984375 Z M 25.59375 -41.109375 L 25.59375 -32.234375 L 31.1875 -32.234375 C 32.144531 -32.234375 32.992188 -32.59375 33.734375 -33.3125 C 34.484375 -34.03125 34.859375 -35.054688 34.859375 -36.390625 C 34.859375 -37.722656 34.566406 -38.84375 33.984375 -39.75 C 33.398438 -40.65625 32.46875 -41.109375 31.1875 -41.109375 Z M 25.59375 -41.109375 "/></g></g></g><g fill="#ffffff" fill-opacity="1"><g transform="translate(304.54229, 94.992697)"><g><path d="M 36.78125 0 L 21.109375 0 C 20.523438 0 20.019531 -0.210938 19.59375 -0.640625 C 19.164062 -1.066406 18.953125 -1.570312 18.953125 -2.15625 L 18.953125 -17.90625 L 0.953125 -53.5 C 0.847656 -53.707031 0.796875 -54 0.796875 -54.375 C 0.796875 -54.75 0.96875 -55.109375 1.3125 -55.453125 C 1.664062 -55.804688 2.082031 -55.984375 2.5625 -55.984375 L 17.59375 -55.984375 C 19.1875 -55.984375 20.304688 -55.316406 20.953125 -53.984375 L 28.953125 -37.90625 L 36.953125 -53.984375 C 37.585938 -55.316406 38.703125 -55.984375 40.296875 -55.984375 L 55.34375 -55.984375 C 55.820312 -55.984375 56.234375 -55.804688 56.578125 -55.453125 C 56.921875 -55.109375 57.09375 -54.75 57.09375 -54.375 C 57.09375 -54 57.039062 -53.707031 56.9375 -53.5 L 38.9375 -17.90625 L 38.9375 -2.15625 C 38.9375 -1.570312 38.722656 -1.066406 38.296875 -0.640625 C 37.878906 -0.210938 37.375 0 36.78125 0 Z M 36.78125 0 "/></g></g></g><g fill="#ffffff" fill-opacity="1"><g transform="translate(15.061083, 26.986065)"><g><path d="M 5.515625 0 L 3.53125 0 L 3.53125 -3.953125 L 0.046875 -10.078125 L 2.1875 -10.078125 L 4.484375 -6.109375 L 4.65625 -6.109375 L 6.90625 -10.078125 L 9 -10.078125 L 5.515625 -3.953125 Z M 5.515625 0 "/></g></g></g><g fill="#ffffff" fill-opacity="1"><g transform="translate(25.358986, 26.986065)"><g><path d="M 5.484375 0.140625 C 4.566406 0.140625 3.753906 -0.046875 3.046875 -0.421875 C 2.335938 -0.796875 1.785156 -1.367188 1.390625 -2.140625 C 0.992188 -2.921875 0.796875 -3.882812 0.796875 -5.03125 C 0.796875 -6.1875 0.992188 -7.148438 1.390625 -7.921875 C 1.785156 -8.703125 2.335938 -9.28125 3.046875 -9.65625 C 3.753906 -10.03125 4.566406 -10.21875 5.484375 -10.21875 C 6.410156 -10.21875 7.222656 -10.03125 7.921875 -9.65625 C 8.628906 -9.28125 9.179688 -8.703125 9.578125 -7.921875 C 9.972656 -7.148438 10.171875 -6.1875 10.171875 -5.03125 C 10.171875 -3.882812 9.972656 -2.921875 9.578125 -2.140625 C 9.179688 -1.367188 8.628906 -0.796875 7.921875 -0.421875 C 7.222656 -0.046875 6.410156 0.140625 5.484375 0.140625 Z M 5.484375 -1.578125 C 6.335938 -1.578125 6.988281 -1.851562 7.4375 -2.40625 C 7.894531 -2.957031 8.125 -3.832031 8.125 -5.03125 C 8.125 -6.238281 7.894531 -7.117188 7.4375 -7.671875 C 6.988281 -8.222656 6.335938 -8.5 5.484375 -8.5 C 4.628906 -8.5 3.972656 -8.222656 3.515625 -7.671875 C 3.066406 -7.117188 2.84375 -6.238281 2.84375 -5.03125 C 2.84375 -3.832031 3.066406 -2.957031 3.515625 -2.40625 C 3.972656 -1.851562 4.628906 -1.578125 5.484375 -1.578125 Z M 5.484375 -1.578125 "/></g></g></g><g fill="#ffffff" fill-opacity="1"><g transform="translate(37.585109, 26.986065)"><g><path d="M 5.34375 0.140625 C 3.957031 0.140625 2.925781 -0.1875 2.25 -0.84375 C 1.582031 -1.5 1.25 -2.476562 1.25 -3.78125 L 1.25 -10.078125 L 3.203125 -10.078125 L 3.203125 -3.796875 C 3.203125 -3.054688 3.375 -2.5 3.71875 -2.125 C 4.070312 -1.757812 4.613281 -1.578125 5.34375 -1.578125 C 6.769531 -1.578125 7.484375 -2.316406 7.484375 -3.796875 L 7.484375 -10.078125 L 9.4375 -10.078125 L 9.4375 -3.78125 C 9.4375 -2.476562 9.097656 -1.5 8.421875 -0.84375 C 7.753906 -0.1875 6.726562 0.140625 5.34375 0.140625 Z M 5.34375 0.140625 "/></g></g></g><g fill="#ffffff" fill-opacity="1"><g transform="translate(49.515112, 26.986065)"><g><path d="M 1.3125 0 L 1.3125 -10.078125 L 5.359375 -10.078125 C 6.398438 -10.078125 7.1875 -9.832031 7.71875 -9.34375 C 8.25 -8.863281 8.515625 -8.203125 8.515625 -7.359375 C 8.515625 -6.753906 8.359375 -6.253906 8.046875 -5.859375 C 7.734375 -5.472656 7.269531 -5.175781 6.65625 -4.96875 L 6.65625 -4.828125 C 6.96875 -4.679688 7.222656 -4.472656 7.421875 -4.203125 C 7.617188 -3.929688 7.804688 -3.53125 7.984375 -3 L 8.984375 0 L 6.9375 0 L 5.953125 -3.015625 C 5.847656 -3.316406 5.734375 -3.550781 5.609375 -3.71875 C 5.484375 -3.882812 5.320312 -4.003906 5.125 -4.078125 C 4.9375 -4.160156 4.6875 -4.203125 4.375 -4.203125 L 3.296875 -4.203125 L 3.296875 0 Z M 5.109375 -5.765625 C 6.078125 -5.765625 6.5625 -6.21875 6.5625 -7.125 C 6.5625 -8.039062 6.078125 -8.5 5.109375 -8.5 L 3.296875 -8.5 L 3.296875 -5.765625 Z M 5.109375 -5.765625 "/></g></g></g><g fill="#ffffff" fill-opacity="1"><g transform="translate(60.184886, 26.986065)"><g/></g></g><g fill="#ffffff" fill-opacity="1"><g transform="translate(64.766996, 26.986065)"><g><path d="M 7.703125 -10.078125 L 7.703125 -8.40625 L 3.296875 -8.40625 L 3.296875 -5.734375 L 7.28125 -5.734375 L 7.28125 -4.09375 L 3.296875 -4.09375 L 3.296875 0 L 1.3125 0 L 1.3125 -10.078125 Z M 7.703125 -10.078125 "/></g></g></g><g fill="#ffffff" fill-opacity="1"><g transform="translate(74.162768, 26.986065)"><g><path d="M 1.3125 0 L 1.3125 -10.078125 L 5.359375 -10.078125 C 6.398438 -10.078125 7.1875 -9.832031 7.71875 -9.34375 C 8.25 -8.863281 8.515625 -8.203125 8.515625 -7.359375 C 8.515625 -6.753906 8.359375 -6.253906 8.046875 -5.859375 C 7.734375 -5.472656 7.269531 -5.175781 6.65625 -4.96875 L 6.65625 -4.828125 C 6.96875 -4.679688 7.222656 -4.472656 7.421875 -4.203125 C 7.617188 -3.929688 7.804688 -3.53125 7.984375 -3 L 8.984375 0 L 6.9375 0 L 5.953125 -3.015625 C 5.847656 -3.316406 5.734375 -3.550781 5.609375 -3.71875 C 5.484375 -3.882812 5.320312 -4.003906 5.125 -4.078125 C 4.9375 -4.160156 4.6875 -4.203125 4.375 -4.203125 L 3.296875 -4.203125 L 3.296875 0 Z M 5.109375 -5.765625 C 6.078125 -5.765625 6.5625 -6.21875 6.5625 -7.125 C 6.5625 -8.039062 6.078125 -8.5 5.109375 -8.5 L 3.296875 -8.5 L 3.296875 -5.765625 Z M 5.109375 -5.765625 "/></g></g></g><g fill="#ffffff" fill-opacity="1"><g transform="translate(84.832542, 26.986065)"><g><path d="M 3.296875 0 L 1.3125 0 L 1.3125 -10.078125 L 3.296875 -10.078125 Z M 3.296875 0 "/></g></g></g><g fill="#ffffff" fill-opacity="1"><g transform="translate(90.702427, 26.986065)"><g><path d="M 3.296875 -4.421875 L 3.296875 -1.671875 L 8.109375 -1.671875 L 8.109375 0 L 1.3125 0 L 1.3125 -10.078125 L 8 -10.078125 L 8 -8.40625 L 3.296875 -8.40625 L 3.296875 -6.046875 L 7.40625 -6.046875 L 7.40625 -4.421875 Z M 3.296875 -4.421875 "/></g></g></g><g fill="#ffffff" fill-opacity="1"><g transform="translate(100.614686, 26.986065)"><g><path d="M 3.234375 0 L 1.3125 0 L 1.3125 -10.078125 L 3.59375 -10.078125 L 7.640625 -3.578125 L 7.8125 -3.609375 L 7.8125 -10.078125 L 9.734375 -10.078125 L 9.734375 0 L 7.6875 0 L 3.40625 -6.9375 L 3.234375 -6.90625 Z M 3.234375 0 "/></g></g></g><g fill="#ffffff" fill-opacity="1"><g transform="translate(112.909674, 26.986065)"><g><path d="M 4.9375 -10.078125 C 6.570312 -10.078125 7.816406 -9.648438 8.671875 -8.796875 C 9.535156 -7.953125 9.96875 -6.695312 9.96875 -5.03125 C 9.96875 -3.375 9.535156 -2.117188 8.671875 -1.265625 C 7.816406 -0.421875 6.570312 0 4.9375 0 L 1.3125 0 L 1.3125 -10.078125 Z M 4.8125 -1.671875 C 5.851562 -1.671875 6.628906 -1.9375 7.140625 -2.46875 C 7.660156 -3 7.921875 -3.851562 7.921875 -5.03125 C 7.921875 -6.21875 7.660156 -7.070312 7.140625 -7.59375 C 6.628906 -8.125 5.851562 -8.390625 4.8125 -8.390625 L 3.296875 -8.390625 L 3.296875 -1.671875 Z M 4.8125 -1.671875 "/></g></g></g><g fill="#ffffff" fill-opacity="1"><g transform="translate(124.929207, 26.986065)"><g><path d="M 3.296875 -10.078125 L 3.296875 -1.671875 L 7.828125 -1.671875 L 7.828125 0 L 1.3125 0 L 1.3125 -10.078125 Z M 3.296875 -10.078125 "/></g></g></g><g fill="#ffffff" fill-opacity="1"><g transform="translate(134.338746, 26.986065)"><g><path d="M 5.515625 0 L 3.53125 0 L 3.53125 -3.953125 L 0.046875 -10.078125 L 2.1875 -10.078125 L 4.484375 -6.109375 L 4.65625 -6.109375 L 6.90625 -10.078125 L 9 -10.078125 L 5.515625 -3.953125 Z M 5.515625 0 "/></g></g></g><g fill="#ffffff" fill-opacity="1"><g transform="translate(144.636655, 26.986065)"><g/></g></g><g fill="#ffffff" fill-opacity="1"><g transform="translate(149.218771, 26.986065)"><g><path d="M 9.671875 0 L 7.578125 0 L 6.8125 -2.328125 L 2.953125 -2.328125 L 2.203125 0 L 0.15625 0 L 3.625 -10.078125 L 6.1875 -10.078125 Z M 4.78125 -7.96875 L 3.5 -4 L 6.265625 -4 L 4.953125 -7.96875 Z M 4.78125 -7.96875 "/></g></g></g><g fill="#ffffff" fill-opacity="1"><g transform="translate(160.287967, 26.986065)"><g><path d="M 3.234375 0 L 1.3125 0 L 1.3125 -10.078125 L 3.59375 -10.078125 L 7.640625 -3.578125 L 7.8125 -3.609375 L 7.8125 -10.078125 L 9.734375 -10.078125 L 9.734375 0 L 7.6875 0 L 3.40625 -6.9375 L 3.234375 -6.90625 Z M 3.234375 0 "/></g></g></g><g fill="#ffffff" fill-opacity="1"><g transform="translate(172.58296, 26.986065)"><g><path d="M 4.9375 -10.078125 C 6.570312 -10.078125 7.816406 -9.648438 8.671875 -8.796875 C 9.535156 -7.953125 9.96875 -6.695312 9.96875 -5.03125 C 9.96875 -3.375 9.535156 -2.117188 8.671875 -1.265625 C 7.816406 -0.421875 6.570312 0 4.9375 0 L 1.3125 0 L 1.3125 -10.078125 Z M 4.8125 -1.671875 C 5.851562 -1.671875 6.628906 -1.9375 7.140625 -2.46875 C 7.660156 -3 7.921875 -3.851562 7.921875 -5.03125 C 7.921875 -6.21875 7.660156 -7.070312 7.140625 -7.59375 C 6.628906 -8.125 5.851562 -8.390625 4.8125 -8.390625 L 3.296875 -8.390625 L 3.296875 -1.671875 Z M 4.8125 -1.671875 "/></g></g></g><g fill="#ffffff" fill-opacity="1"><g transform="translate(184.602493, 26.986065)"><g/></g></g><g fill="#ffffff" fill-opacity="1"><g transform="translate(189.18461, 26.986065)"><g><path d="M 8 2.5 C 7.113281 2.5 6.378906 2.285156 5.796875 1.859375 C 5.210938 1.429688 4.816406 0.835938 4.609375 0.078125 C 3.847656 -0.0234375 3.179688 -0.28125 2.609375 -0.6875 C 2.035156 -1.101562 1.585938 -1.675781 1.265625 -2.40625 C 0.953125 -3.132812 0.796875 -4.007812 0.796875 -5.03125 C 0.796875 -6.1875 0.992188 -7.148438 1.390625 -7.921875 C 1.785156 -8.703125 2.335938 -9.28125 3.046875 -9.65625 C 3.753906 -10.03125 4.566406 -10.21875 5.484375 -10.21875 C 6.410156 -10.21875 7.222656 -10.03125 7.921875 -9.65625 C 8.628906 -9.28125 9.179688 -8.703125 9.578125 -7.921875 C 9.972656 -7.148438 10.171875 -6.1875 10.171875 -5.03125 C 10.171875 -3.53125 9.847656 -2.375 9.203125 -1.5625 C 8.554688 -0.757812 7.648438 -0.257812 6.484375 -0.0625 L 6.453125 0.078125 C 6.597656 0.316406 6.8125 0.5 7.09375 0.625 C 7.375 0.757812 7.703125 0.828125 8.078125 0.828125 C 8.378906 0.828125 8.65625 0.789062 8.90625 0.71875 L 9.03125 0.75 L 9.328125 2.296875 C 9.171875 2.359375 8.96875 2.40625 8.71875 2.4375 C 8.476562 2.476562 8.238281 2.5 8 2.5 Z M 5.484375 -1.578125 C 6.335938 -1.578125 6.988281 -1.851562 7.4375 -2.40625 C 7.894531 -2.957031 8.125 -3.832031 8.125 -5.03125 C 8.125 -6.238281 7.894531 -7.117188 7.4375 -7.671875 C 6.988281 -8.222656 6.335938 -8.5 5.484375 -8.5 C 4.628906 -8.5 3.972656 -8.222656 3.515625 -7.671875 C 3.066406 -7.117188 2.84375 -6.238281 2.84375 -5.03125 C 2.84375 -3.832031 3.066406 -2.957031 3.515625 -2.40625 C 3.972656 -1.851562 4.628906 -1.578125 5.484375 -1.578125 Z M 5.484375 -1.578125 "/></g></g></g><g fill="#ffffff" fill-opacity="1"><g transform="translate(201.410738, 26.986065)"><g><path d="M 5.34375 0.140625 C 3.957031 0.140625 2.925781 -0.1875 2.25 -0.84375 C 1.582031 -1.5 1.25 -2.476562 1.25 -3.78125 L 1.25 -10.078125 L 3.203125 -10.078125 L 3.203125 -3.796875 C 3.203125 -3.054688 3.375 -2.5 3.71875 -2.125 C 4.070312 -1.757812 4.613281 -1.578125 5.34375 -1.578125 C 6.769531 -1.578125 7.484375 -2.316406 7.484375 -3.796875 L 7.484375 -10.078125 L 9.4375 -10.078125 L 9.4375 -3.78125 C 9.4375 -2.476562 9.097656 -1.5 8.421875 -0.84375 C 7.753906 -0.1875 6.726562 0.140625 5.34375 0.140625 Z M 5.34375 0.140625 "/></g></g></g><g fill="#ffffff" fill-opacity="1"><g transform="translate(213.340735, 26.986065)"><g><path d="M 3.296875 0 L 1.3125 0 L 1.3125 -10.078125 L 3.296875 -10.078125 Z M 3.296875 0 "/></g></g></g><g fill="#ffffff" fill-opacity="1"><g transform="translate(219.210614, 26.986065)"><g><path d="M 1.3125 0 L 1.3125 -10.078125 L 5.359375 -10.078125 C 6.398438 -10.078125 7.1875 -9.832031 7.71875 -9.34375 C 8.25 -8.863281 8.515625 -8.203125 8.515625 -7.359375 C 8.515625 -6.753906 8.359375 -6.253906 8.046875 -5.859375 C 7.734375 -5.472656 7.269531 -5.175781 6.65625 -4.96875 L 6.65625 -4.828125 C 6.96875 -4.679688 7.222656 -4.472656 7.421875 -4.203125 C 7.617188 -3.929688 7.804688 -3.53125 7.984375 -3 L 8.984375 0 L 6.9375 0 L 5.953125 -3.015625 C 5.847656 -3.316406 5.734375 -3.550781 5.609375 -3.71875 C 5.484375 -3.882812 5.320312 -4.003906 5.125 -4.078125 C 4.9375 -4.160156 4.6875 -4.203125 4.375 -4.203125 L 3.296875 -4.203125 L 3.296875 0 Z M 5.109375 -5.765625 C 6.078125 -5.765625 6.5625 -6.21875 6.5625 -7.125 C 6.5625 -8.039062 6.078125 -8.5 5.109375 -8.5 L 3.296875 -8.5 L 3.296875 -5.765625 Z M 5.109375 -5.765625 "/></g></g></g><g fill="#ffffff" fill-opacity="1"><g transform="translate(229.880394, 26.986065)"><g><path d="M 1.3125 0 L 1.3125 -10.078125 L 3.296875 -10.078125 L 3.296875 -5.953125 L 3.515625 -5.953125 L 6.875 -10.078125 L 8.921875 -10.078125 L 8.921875 -9.90625 L 5.21875 -5.3125 L 9.3125 -0.171875 L 9.3125 0 L 7.0625 0 L 3.515625 -4.34375 L 3.296875 -4.34375 L 3.296875 0 Z M 1.3125 0 "/></g></g></g><g fill="#ffffff" fill-opacity="1"><g transform="translate(240.43999, 26.986065)"><g><path d="M 5.515625 0 L 3.53125 0 L 3.53125 -3.953125 L 0.046875 -10.078125 L 2.1875 -10.078125 L 4.484375 -6.109375 L 4.65625 -6.109375 L 6.90625 -10.078125 L 9 -10.078125 L 5.515625 -3.953125 Z M 5.515625 0 "/></g></g></g><g fill="#ffffff" fill-opacity="1"><g transform="translate(250.737899, 26.986065)"><g/></g></g><g fill="#ffffff" fill-opacity="1"><g transform="translate(255.320015, 26.986065)"><g><path d="M 5.5 0.140625 C 4.570312 0.140625 3.753906 -0.0507812 3.046875 -0.4375 C 2.335938 -0.820312 1.785156 -1.398438 1.390625 -2.171875 C 0.992188 -2.941406 0.796875 -3.894531 0.796875 -5.03125 C 0.796875 -6.164062 0.992188 -7.117188 1.390625 -7.890625 C 1.785156 -8.671875 2.335938 -9.253906 3.046875 -9.640625 C 3.753906 -10.023438 4.570312 -10.21875 5.5 -10.21875 C 6.46875 -10.21875 7.289062 -10.023438 7.96875 -9.640625 C 8.644531 -9.265625 9.128906 -8.691406 9.421875 -7.921875 L 7.96875 -7.03125 L 7.796875 -7.03125 C 7.578125 -7.550781 7.28125 -7.925781 6.90625 -8.15625 C 6.539062 -8.382812 6.070312 -8.5 5.5 -8.5 C 4.664062 -8.5 4.015625 -8.222656 3.546875 -7.671875 C 3.078125 -7.117188 2.84375 -6.238281 2.84375 -5.03125 C 2.84375 -3.832031 3.078125 -2.957031 3.546875 -2.40625 C 4.015625 -1.851562 4.664062 -1.578125 5.5 -1.578125 C 6.8125 -1.578125 7.613281 -2.210938 7.90625 -3.484375 L 8.078125 -3.484375 L 9.546875 -2.71875 C 9.273438 -1.757812 8.804688 -1.039062 8.140625 -0.5625 C 7.472656 -0.09375 6.59375 0.140625 5.5 0.140625 Z M 5.5 0.140625 "/></g></g></g><g fill="#ffffff" fill-opacity="1"><g transform="translate(266.451178, 26.986065)"><g><path d="M 7.8125 -6.28125 L 7.8125 -10.078125 L 9.796875 -10.078125 L 9.796875 0 L 7.8125 0 L 7.8125 -4.59375 L 3.296875 -4.59375 L 3.296875 0 L 1.3125 0 L 1.3125 -10.078125 L 3.296875 -10.078125 L 3.296875 -6.28125 Z M 7.8125 -6.28125 "/></g></g></g><g fill="#ffffff" fill-opacity="1"><g transform="translate(278.815036, 26.986065)"><g><path d="M 9.671875 0 L 7.578125 0 L 6.8125 -2.328125 L 2.953125 -2.328125 L 2.203125 0 L 0.15625 0 L 3.625 -10.078125 L 6.1875 -10.078125 Z M 4.78125 -7.96875 L 3.5 -4 L 6.265625 -4 L 4.953125 -7.96875 Z M 4.78125 -7.96875 "/></g></g></g><g fill="#ffffff" fill-opacity="1"><g transform="translate(289.884233, 26.986065)"><g><path d="M 8.078125 -10.078125 L 8.078125 -8.390625 L 5.171875 -8.390625 L 5.171875 0 L 3.1875 0 L 3.1875 -8.390625 L 0.28125 -8.390625 L 0.28125 -10.078125 Z M 8.078125 -10.078125 "/></g></g></g><g fill="#ffffff" fill-opacity="1"><g transform="translate(299.486594, 26.986065)"><g/></g></g><g fill="#ffffff" fill-opacity="1"><g transform="translate(304.06871, 26.986065)"><g><path d="M 1.3125 0 L 1.3125 -10.078125 L 5.609375 -10.078125 C 6.222656 -10.078125 6.742188 -9.976562 7.171875 -9.78125 C 7.609375 -9.582031 7.9375 -9.300781 8.15625 -8.9375 C 8.375 -8.582031 8.484375 -8.160156 8.484375 -7.671875 C 8.484375 -7.222656 8.375 -6.828125 8.15625 -6.484375 C 7.945312 -6.148438 7.640625 -5.878906 7.234375 -5.671875 L 7.234375 -5.53125 C 7.867188 -5.363281 8.359375 -5.0625 8.703125 -4.625 C 9.046875 -4.1875 9.21875 -3.648438 9.21875 -3.015625 C 9.21875 -2.054688 8.925781 -1.3125 8.34375 -0.78125 C 7.757812 -0.257812 6.898438 0 5.765625 0 Z M 5.1875 -6.0625 C 6.125 -6.0625 6.59375 -6.476562 6.59375 -7.3125 C 6.59375 -7.738281 6.472656 -8.054688 6.234375 -8.265625 C 6.003906 -8.472656 5.65625 -8.578125 5.1875 -8.578125 L 3.296875 -8.578125 L 3.296875 -6.0625 Z M 5.5625 -1.578125 C 6.65625 -1.578125 7.203125 -2.078125 7.203125 -3.078125 C 7.203125 -4.078125 6.65625 -4.578125 5.5625 -4.578125 L 3.296875 -4.578125 L 3.296875 -1.578125 Z M 5.5625 -1.578125 "/></g></g></g><g fill="#ffffff" fill-opacity="1"><g transform="translate(315.172327, 26.986065)"><g><path d="M 5.34375 0.140625 C 3.957031 0.140625 2.925781 -0.1875 2.25 -0.84375 C 1.582031 -1.5 1.25 -2.476562 1.25 -3.78125 L 1.25 -10.078125 L 3.203125 -10.078125 L 3.203125 -3.796875 C 3.203125 -3.054688 3.375 -2.5 3.71875 -2.125 C 4.070312 -1.757812 4.613281 -1.578125 5.34375 -1.578125 C 6.769531 -1.578125 7.484375 -2.316406 7.484375 -3.796875 L 7.484375 -10.078125 L 9.4375 -10.078125 L 9.4375 -3.78125 C 9.4375 -2.476562 9.097656 -1.5 8.421875 -0.84375 C 7.753906 -0.1875 6.726562 0.140625 5.34375 0.140625 Z M 5.34375 0.140625 "/></g></g></g><g fill="#ffffff" fill-opacity="1"><g transform="translate(327.102324, 26.986065)"><g><path d="M 4.9375 -10.078125 C 6.570312 -10.078125 7.816406 -9.648438 8.671875 -8.796875 C 9.535156 -7.953125 9.96875 -6.695312 9.96875 -5.03125 C 9.96875 -3.375 9.535156 -2.117188 8.671875 -1.265625 C 7.816406 -0.421875 6.570312 0 4.9375 0 L 1.3125 0 L 1.3125 -10.078125 Z M 4.8125 -1.671875 C 5.851562 -1.671875 6.628906 -1.9375 7.140625 -2.46875 C 7.660156 -3 7.921875 -3.851562 7.921875 -5.03125 C 7.921875 -6.21875 7.660156 -7.070312 7.140625 -7.59375 C 6.628906 -8.125 5.851562 -8.390625 4.8125 -8.390625 L 3.296875 -8.390625 L 3.296875 -1.671875 Z M 4.8125 -1.671875 "/></g></g></g><g fill="#ffffff" fill-opacity="1"><g transform="translate(339.121858, 26.986065)"><g><path d="M 4.9375 -10.078125 C 6.570312 -10.078125 7.816406 -9.648438 8.671875 -8.796875 C 9.535156 -7.953125 9.96875 -6.695312 9.96875 -5.03125 C 9.96875 -3.375 9.535156 -2.117188 8.671875 -1.265625 C 7.816406 -0.421875 6.570312 0 4.9375 0 L 1.3125 0 L 1.3125 -10.078125 Z M 4.8125 -1.671875 C 5.851562 -1.671875 6.628906 -1.9375 7.140625 -2.46875 C 7.660156 -3 7.921875 -3.851562 7.921875 -5.03125 C 7.921875 -6.21875 7.660156 -7.070312 7.140625 -7.59375 C 6.628906 -8.125 5.851562 -8.390625 4.8125 -8.390625 L 3.296875 -8.390625 L 3.296875 -1.671875 Z M 4.8125 -1.671875 "/></g></g></g><g fill="#ffffff" fill-opacity="1"><g transform="translate(351.141391, 26.986065)"><g><path d="M 5.515625 0 L 3.53125 0 L 3.53125 -3.953125 L 0.046875 -10.078125 L 2.1875 -10.078125 L 4.484375 -6.109375 L 4.65625 -6.109375 L 6.90625 -10.078125 L 9 -10.078125 L 5.515625 -3.953125 Z M 5.515625 0 "/></g></g></g></svg>